<?xml version="1.0"?>
<svg xmlns="http://www.w3.org/2000/svg" xmlns:xlink="http://www.w3.org/1999/xlink" version="1.1" id="Capa_1" x="0px" y="0px" viewBox="0 0 496 496" style="enable-background:new 0 0 496 496;" xml:space="preserve" width="512px" height="512px" class=""><g><path style="fill:#0E2A47" d="M399.448,237.072l-30.096,21.968l-45.264-35.76l15.6-55.536l37.272,0.08  c-20.64-33.128-53.616-57.664-92.56-67.248L296,136l-48,32l-48-32l11.6-35.432c-38.952,9.592-71.92,34.12-92.56,67.248l37.272-0.08  l15.6,55.536l-45.264,35.76l-30.096-21.968C96.296,240.696,96,244.312,96,248c0,37.344,13.52,71.496,35.864,97.96l11.464-35.568  l57.64,2.328l20.024,54.104l-30.304,21.912C208.392,395.952,227.712,400,248,400s39.608-4.048,57.304-11.264L275,366.824  l20.024-54.104l57.64-2.328l11.464,35.568C386.48,319.496,400,285.344,400,248C400,244.312,399.704,240.696,399.448,237.072z   M277.664,288h-59.328L200,232l48-32l48,32L277.664,288z" data-original="#F0BC5E" class="" data-old_color="#F0BC5E"/><path d="M171.392,29.008L160.424,61.44l15.16,5.128l20.832-61.592l-14.544,4.016C74.792,38.552,0,136.84,0,248h16  C16,149.192,79.168,61.256,171.392,29.008z" data-original="#000000" class="active-path" style="fill:#FFFFFF" data-old_color="#000000"/><path d="M480,248c0,98.808-63.168,186.744-155.392,218.992l10.968-32.424l-15.16-5.128l-20.832,61.592l14.544-4.016  C421.208,457.448,496,359.16,496,248H480z" data-original="#000000" class="active-path" style="fill:#FFFFFF" data-old_color="#000000"/><path d="M248,88c-88.224,0-160,71.776-160,160s71.776,160,160,160s160-71.776,160-160S336.224,88,248,88z M361.568,159.792  l-17.272-0.04l-42.128-30.608l-5.384-16.456C322.608,122.032,344.992,138.496,361.568,159.792z M269,360h-42l-17.184-46.424  L220.496,296h55l10.68,17.576L269,360z M123.6,175.816l26.664-0.064l12.512,44.552l-36.312,28.688l-21.696-15.84  C106.904,212.408,113.576,193.024,123.6,175.816z M199.16,145.048L240,172.28v23.44l-41.176,27.456l-20.288-6.76L178.4,216.8  l-13.224-47.064L199.16,145.048z M296.84,145.048l33.976,24.688L317.6,216.8l-0.128-0.392l-20.288,6.76L256,195.72v-23.44  L296.84,145.048z M209.496,235.288L248,209.616l38.504,25.672L271.864,280h-47.736L209.496,235.288z M118.216,262.792l16.096,49.528  l-5.352,16.584c-14.92-21.888-23.832-48.104-24.728-76.32L118.216,262.792z M147.968,302.576l-12.976-39.936l39.056-30.856  l19.6,6.536l15.12,46.176l-12.184,20.048L147.968,302.576z M299.416,304.544l-12.184-20.048l15.12-46.176l19.6-6.536l39.056,30.856  l-12.976,39.936L299.416,304.544z M361.688,312.32l16.096-49.528l13.984-10.208c-0.896,28.216-9.808,54.432-24.728,76.32  L361.688,312.32z M369.536,249l-36.312-28.688l12.512-44.552l26.664,0.064c10.024,17.208,16.696,36.592,18.832,57.344L369.536,249z   M278.168,107.232l8.344,25.48L248,158.384l-38.504-25.672l8.344-25.48c9.736-2.08,19.808-3.232,30.16-3.232  C258.352,104,268.424,105.152,278.168,107.232z M199.216,112.688l-5.384,16.456l-42.128,30.608l-17.272,0.04  C151.008,138.496,173.392,122.032,199.216,112.688z M140.928,343.944l8.16-25.312l46.24,1.864l16.064,43.4l-21.664,15.664  C171,371.24,154.44,359.008,140.928,343.944z M207.864,386.192L221.96,376h52.08l14.096,10.192C275.376,389.904,261.936,392,248,392  S220.624,389.904,207.864,386.192z M306.272,379.568l-21.664-15.664l16.064-43.4l46.24-1.864l8.16,25.312  C341.56,359.008,325,371.24,306.272,379.568z" data-original="#000000" class="active-path" style="fill:#FFFFFF" data-old_color="#000000"/><rect x="240" width="16" height="16" data-original="#000000" class="active-path" style="fill:#FFFFFF" data-old_color="#000000"/><rect x="8.177" y="302.11" transform="matrix(-0.9659 0.2588 -0.2588 -0.9659 112.0611 605.4661)" width="16" height="16" data-original="#000000" class="active-path" style="fill:#FFFFFF" data-old_color="#000000"/><rect x="32.154" y="360.01" transform="matrix(-0.8661 0.4999 -0.4999 -0.8661 258.8962 666.667)" width="16" height="16" data-original="#000000" class="active-path" style="fill:#FFFFFF" data-old_color="#000000"/><rect x="70.28" y="409.71" transform="matrix(-0.7072 0.707 -0.707 -0.7072 428.9641 657.772)" width="16" height="16" data-original="#000000" class="active-path" style="fill:#FFFFFF" data-old_color="#000000"/><rect x="120.013" y="447.832" transform="matrix(-0.4999 0.8661 -0.8661 -0.4999 586.7963 572.8286)" width="16" height="16" data-original="#000000" class="active-path" style="fill:#FFFFFF" data-old_color="#000000"/><rect x="177.882" y="471.836" transform="matrix(-0.259 0.9659 -0.9659 -0.259 697.4879 424.572)" width="16" height="16" data-original="#000000" class="active-path" style="fill:#FFFFFF" data-old_color="#000000"/><rect x="240" y="480" width="16" height="16" data-original="#000000" class="active-path" style="fill:#FFFFFF" data-old_color="#000000"/><rect x="471.795" y="177.845" transform="matrix(-0.9659 0.2588 -0.2588 -0.9659 991.341 241.1838)" width="16" height="16" data-original="#000000" class="active-path" style="fill:#FFFFFF" data-old_color="#000000"/><rect x="447.854" y="119.996" transform="matrix(-0.8661 0.4999 -0.4999 -0.8661 914.6481 10.9735)" width="16" height="16" data-original="#000000" class="active-path" style="fill:#FFFFFF" data-old_color="#000000"/><rect x="409.676" y="70.305" transform="matrix(-0.7072 0.707 -0.707 -0.7072 768.4216 -161.6175)" width="16" height="16" data-original="#000000" class="active-path" style="fill:#FFFFFF" data-old_color="#000000"/><rect x="360.002" y="32.141" transform="matrix(-0.4999 0.8661 -0.8661 -0.4999 586.7293 -258.5136)" width="16" height="16" data-original="#000000" class="active-path" style="fill:#FFFFFF" data-old_color="#000000"/><rect x="302.089" y="8.161" transform="matrix(-0.259 0.9659 -0.9659 -0.259 406.0105 -279.1616)" width="16" height="16" data-original="#000000" class="active-path" style="fill:#FFFFFF" data-old_color="#000000"/></g> </svg>
