<svg xmlns="http://www.w3.org/2000/svg" viewBox="0 0 5.96 5.4"><defs><style>.cls-1{fill:none;stroke:#000;stroke-miterlimit:10;stroke-width:0.25px;}</style></defs><title>oAsset 1</title><g id="Layer_2" data-name="Layer 2"><g id="Layer_1-2" data-name="Layer 1"><path class="cls-1" d="M.78.94A2.23,2.23,0,0,0,.15,2,2.23,2.23,0,0,0,.48,3.5,3.78,3.78,0,0,0,2.37,5.11a2.26,2.26,0,0,0,.93.17,2.17,2.17,0,0,0,1.34-.7A5.9,5.9,0,0,0,5.51,3.3a1.88,1.88,0,0,0,.32-.85c0-.62-.48-1.11-1-1.5A3,3,0,0,0,.78.94Z"/></g></g></svg>